<svg version="1.1" id="Layer_1" xmlns="http://www.w3.org/2000/svg" xmlns:xlink="http://www.w3.org/1999/xlink" x="0px" y="0px"
	 width="100%" viewBox="0 0 496 496" enable-background="new 0 0 496 496" xml:space="preserve">
<path fill="#000000" opacity="1.000000" stroke="none" 
	d="
M317.000061,417.656677 
	C337.664459,417.657043 357.829834,417.552246 377.992432,417.741669 
	C382.344879,417.782562 383.862701,416.463928 383.737640,412.046112 
	C383.464172,402.388336 383.610229,392.717102 383.670074,383.051910 
	C383.725067,374.174744 388.966614,368.066315 396.730286,367.671234 
	C405.382751,367.230957 411.969177,372.698700 412.135681,381.764252 
	C412.502838,401.754852 412.234894,421.756836 412.281372,441.753998 
	C412.287689,444.459473 411.124146,445.779999 408.457581,445.838837 
	C406.958649,445.871948 405.459625,445.931549 403.960663,445.931854 
	C307.638275,445.950684 211.315796,445.924042 114.993683,446.092163 
	C109.872803,446.101105 107.341019,444.646210 105.457428,439.759796 
	C100.860931,427.835571 100.564613,427.932465 109.363068,419.132904 
	C161.078934,367.410248 212.793503,315.686249 264.550690,264.004974 
	C266.528351,262.030212 268.938385,260.488434 271.146973,258.744934 
	C271.182281,257.963562 271.217590,257.182220 271.252899,256.400848 
	C269.445374,255.191315 267.377472,254.242447 265.867889,252.734604 
	C208.214737,195.147980 150.613876,137.508987 93.002365,79.880669 
	C87.066605,73.943184 87.039200,73.947006 90.143959,66.280746 
	C95.227783,53.727825 92.221161,55.835896 105.636650,55.827320 
	C204.125427,55.764366 302.614258,55.792805 401.103088,55.792694 
	C409.259888,55.792683 409.269440,55.793541 409.269867,64.077156 
	C409.270721,81.741806 409.332001,99.406883 409.225464,117.070930 
	C409.170929,126.112495 403.683502,132.115906 395.547028,132.460999 
	C387.025940,132.822418 380.856232,127.168365 380.704987,118.532455 
	C380.544525,109.369568 380.666779,100.201843 380.653076,91.036240 
	C380.643158,84.402534 380.634064,84.366959 374.055023,84.366287 
	C303.229706,84.359062 232.404404,84.363930 161.579102,84.365440 
	C154.276016,84.365593 146.972916,84.365456 139.169189,84.365456 
	C140.071121,86.988533 141.904114,88.207855 143.349487,89.654099 
	C195.888565,142.224579 248.449371,194.773315 301.007141,247.325089 
	C307.249298,253.566544 307.169098,261.541199 301.019836,267.692566 
	C252.715317,316.014008 204.442703,364.367340 156.169266,412.719849 
	C155.014938,413.876038 153.964844,415.136261 151.679245,417.656921 
	C207.556152,417.656921 262.028107,417.656921 317.000061,417.656677 
z"/>
</svg>